<svg xmlns="http://www.w3.org/2000/svg" viewBox="0 0 800 800"><defs><filter id="noise"><feTurbulence type="fractalNoise" baseFrequency="0.015" numOctaves="4" seed="13"/><feDisplacementMap in="SourceGraphic" scale="15"/></filter></defs><rect width="800" height="800" fill="#FFFFFF"/><g filter="url(#noise)"><g><g transform="translate(400,400) scale(6)"><rect x="-20" y="-20" width="40" height="40" fill="#FFF8DC" rx="5"/><rect x="-15" y="-8" width="12" height="10" fill="#000000"/><rect x="3" y="-8" width="12" height="10" fill="#000000"/><path d="M-12,-2 Q-10,2 -8,-2" stroke="#000000" stroke-width="2" fill="none"/><path d="M8,-2 Q10,2 12,-2" stroke="#000000" stroke-width="2" fill="none"/><path d="M-20,-40 L-10,-30 L0,-40 L10,-30 L20,-40 L15,-25 L-15,-25 Z" fill="#FFD700"/><circle cx="0" cy="-35" r="2" fill="#FF0000"/><circle cx="-10" cy="-32" r="2" fill="#00FF00"/><circle cx="10" cy="-32" r="2" fill="#0000FF"/><path d="M-15,10 Q-7,13 0,10 Q7,13 15,10" stroke="#000000" stroke-width="2" fill="none"/></g></g></g></svg>