<svg xmlns="http://www.w3.org/2000/svg" viewBox="0 0 800 800"><defs><filter id="noise"><feTurbulence type="fractalNoise" baseFrequency="0.015" numOctaves="4" seed="12"/><feDisplacementMap in="SourceGraphic" scale="15"/></filter></defs><rect width="800" height="800" fill="#FFFFFF"/><g filter="url(#noise)"><g><g transform="translate(400,400) scale(6)"><rect x="-20" y="-20" width="40" height="40" fill="#7FFF00" rx="5"/><rect x="-25" y="-25" width="50" height="10" fill="#00FF00"/><path d="M-20,-10 h40 v15 h-40 Z" fill="#000000"/><rect x="-15" y="-8" width="12" height="10" fill="#00FF00" opacity="0.7"/><rect x="3" y="-8" width="12" height="10" fill="#00FF00" opacity="0.7"/><path d="M-20,-10 L20,5" stroke="#00FF00" stroke-width="1" opacity="0.5"/><path d="M-25,20 C-15,23 15,23 25,20" stroke="#C0C0C0" stroke-width="3" fill="none"/><path d="M-25,25 C-15,28 15,28 25,25" stroke="#C0C0C0" stroke-width="3" fill="none"/><path d="M-10,0 Q-5,-5 0,0" stroke="#000000" stroke-width="1" fill="none"/><circle cx="10" cy="0" r="2" fill="#000000"/><rect x="-2" y="15" width="4" height="6" fill="#FFFFFF"/><circle cx="18" cy="-5" r="2" fill="#FFD700"/><circle cx="18" cy="0" r="2" fill="#FFD700"/><circle cx="18" cy="5" r="2" fill="#FFD700"/></g></g></g></svg>