<svg width="32" height="32" viewBox="0 0 32 32" fill="none" xmlns="http://www.w3.org/2000/svg">
  <circle cx="16" cy="16" r="16" fill="#2775CA"/>
  <path d="M20.0368 14.4V13.6C20.0368 11.2 18.0368 9.2 15.6368 9.2C13.2368 9.2 11.2368 11.2 11.2368 13.6V18.4C11.2368 20.8 13.2368 22.8 15.6368 22.8C18.0368 22.8 20.0368 20.8 20.0368 18.4V17.6H18.4368V18.4C18.4368 19.9464 17.1832 21.2 15.6368 21.2C14.0904 21.2 12.8368 19.9464 12.8368 18.4V13.6C12.8368 12.0536 14.0904 10.8 15.6368 10.8C17.1832 10.8 18.4368 12.0536 18.4368 13.6V14.4H20.0368Z" fill="white"/>
  <path d="M15.6368 8V9.6M15.6368 22.4V24M21.6368 16H23.2368M8.03677 16H9.63677" stroke="white" stroke-width="1.5"/>
</svg> 