<svg xmlns="http://www.w3.org/2000/svg" width="100" height="100" fill="none" viewBox="0 0 100 100">
  <path fill="currentColor" d="M50 0C22.39 0 0 22.39 0 50C0 77.61 22.39 100 50 100C77.61 100 100 77.61 100 50C100 22.39 77.61 0 50 0ZM24.67 51.68L24.88 51.34L37.89 30.99C38.08 30.7 38.53 30.73 38.67 31.05C40.84 35.92 42.72 41.98 41.84 45.75C41.47 47.3 40.44 49.4 39.28 51.34C39.13 51.62 38.97 51.9 38.79 52.17C38.71 52.29 38.57 52.36 38.42 52.36H25.05C24.69 52.36 24.48 51.97 24.67 51.68ZM82.64 58.68C82.64 58.87 82.53 59.03 82.37 59.1C81.36 59.53 77.91 61.12 76.48 63.11C72.82 68.2 70.03 75.48 63.78 75.48H37.72C28.48 75.48 21 67.97 21 58.7V58.4C21 58.16 21.2 57.96 21.45 57.96H35.97C36.26 57.96 36.47 58.22 36.45 58.51C36.33 59.45 36.52 60.42 37.04 61.3C37.97 63.05 39.8 64.12 41.78 64.12H48.41V58.62H41.87C41.51 58.62 41.3 58.2 41.51 57.91C41.56 57.84 41.63 57.77 41.69 57.69C42.41 56.78 43.37 55.49 44.32 54.04C44.9 53.11 45.46 52.12 45.94 51.12C46.04 50.93 46.13 50.74 46.22 50.54C46.36 50.26 46.48 49.97 46.6 49.69C46.71 49.45 46.82 49.19 46.91 48.95C47.06 48.55 47.18 48.14 47.28 47.74C47.38 47.4 47.46 47.05 47.53 46.71C47.67 46.12 47.75 45.51 47.75 44.89C47.75 44.76 47.75 44.62 47.75 44.48C47.75 44.14 47.72 43.79 47.68 43.44C47.67 43.19 47.63 42.94 47.59 42.68C47.54 42.3 47.47 41.92 47.38 41.54L47.36 41.46C47.28 41.12 47.2 40.78 47.1 40.45C46.87 39.64 46.59 38.83 46.28 38.03C46.16 37.69 46.02 37.37 45.88 37.04C45.61 36.42 45.33 35.84 45.05 35.26C44.91 34.95 44.76 34.67 44.61 34.37C44.44 34.03 44.27 33.7 44.1 33.37C43.98 33.13 43.85 32.9 43.73 32.68L43.15 31.66C43.07 31.53 43.2 31.37 43.35 31.41L48.41 32.46H48.42V31.24C48.42 30.16 49.13 29.21 50.2 28.89C50.67 28.75 51.18 28.73 51.68 28.85C52.41 29.03 53.03 29.51 53.39 30.17C53.62 30.59 53.75 31.08 53.75 31.59V33.61L54.03 33.67C54.06 33.68 54.09 33.69 54.12 33.71C54.21 33.77 54.34 33.85 54.51 33.95C54.66 34.04 54.82 34.15 55.01 34.27C55.26 34.43 55.52 34.61 55.81 34.81C56.34 35.17 56.91 35.59 57.5 36.06C57.64 36.17 57.77 36.28 57.9 36.39C58.58 36.95 59.28 37.57 59.93 38.23C60.15 38.45 60.36 38.68 60.57 38.91C60.78 39.15 61 39.4 61.19 39.64C61.45 39.97 61.71 40.32 61.95 40.67C62.07 40.85 62.2 41.05 62.31 41.24C62.59 41.67 62.84 42.12 63.06 42.57C63.15 42.75 63.24 42.95 63.32 43.14C63.63 43.78 63.87 44.44 64.02 45.1C64.06 45.24 64.09 45.39 64.11 45.52V45.56C64.16 45.74 64.18 45.93 64.19 46.13C64.27 46.68 64.28 47.23 64.21 47.78C64.18 48.03 64.14 48.27 64.08 48.51C63.95 49.07 63.77 49.63 63.52 50.16C63.44 50.35 63.35 50.55 63.25 50.74C63.06 51.11 62.87 51.49 62.64 51.84C62.4 52.22 62.14 52.59 61.86 52.94C61.67 53.2 61.46 53.46 61.24 53.69C60.98 53.98 60.71 54.27 60.42 54.54C60.2 54.76 59.97 54.97 59.75 55.17C59.5 55.4 59.24 55.62 58.99 55.82C58.7 56.05 58.42 56.27 58.14 56.46C57.93 56.61 57.72 56.76 57.52 56.89C57.27 57.06 57.02 57.22 56.79 57.36C56.6 57.47 56.4 57.59 56.18 57.69C56.04 57.76 55.9 57.84 55.76 57.9C55.64 57.96 55.52 58.01 55.41 58.06L54.03 58.62V64.12H57.85C59.96 64.12 61.92 62.99 62.84 61.1C63.01 60.75 63.24 60.42 63.54 60.14C63.79 59.92 64.3 59.61 65.1 59.24C65.12 59.23 65.14 59.22 65.16 59.21C65.3 59.15 65.44 59.1 65.59 59.04C65.95 58.89 66.36 58.73 66.82 58.55C66.93 58.5 67.05 58.46 67.17 58.41L67.18 58.41C67.26 58.37 67.34 58.34 67.42 58.31C67.53 58.27 67.64 58.23 67.75 58.19C67.87 58.14 67.99 58.1 68.11 58.06C68.22 58.02 68.34 57.98 68.45 57.94C68.66 57.87 68.86 57.81 69.06 57.75C69.16 57.72 69.27 57.69 69.36 57.66C69.61 57.59 69.84 57.53 70.06 57.48C70.16 57.46 70.25 57.44 70.33 57.42C70.61 57.37 70.87 57.33 71.1 57.3C71.19 57.29 71.27 57.28 71.35 57.27C71.64 57.24 71.89 57.22 72.1 57.21C72.16 57.21 72.21 57.2 72.26 57.2C72.5 57.19 72.69 57.19 72.84 57.19H72.85C73 57.19 73.19 57.19 73.43 57.2C73.48 57.2 73.53 57.21 73.59 57.21C73.8 57.22 74.05 57.24 74.34 57.27C74.42 57.28 74.5 57.29 74.59 57.3C74.82 57.33 75.08 57.37 75.36 57.42C75.44 57.44 75.53 57.46 75.63 57.48C75.85 57.53 76.08 57.59 76.33 57.66C76.42 57.69 76.53 57.72 76.63 57.75C76.83 57.81 77.03 57.87 77.24 57.94C77.35 57.98 77.47 58.02 77.58 58.06C77.7 58.1 77.82 58.14 77.94 58.19C78.05 58.23 78.16 58.27 78.27 58.31C78.35 58.34 78.43 58.37 78.51 58.41L78.52 58.41C78.64 58.46 78.76 58.5 78.87 58.55C79.33 58.73 79.74 58.89 80.1 59.04C80.25 59.1 80.39 59.15 80.53 59.21C80.55 59.22 80.57 59.23 80.59 59.24C81.39 59.61 81.9 59.92 82.15 60.14C82.45 60.42 82.68 60.75 82.85 61.1C82.78 59.89 82.71 58.68 82.64 58.68Z"/>
</svg> 