<svg xmlns="http://www.w3.org/2000/svg" viewBox="0 0 800 800"><defs><filter id="noise"><feTurbulence type="fractalNoise" baseFrequency="0.015" numOctaves="4" seed="1"/><feDisplacementMap in="SourceGraphic" scale="15"/></filter></defs><rect width="800" height="800" fill="#4B0082"/><g filter="url(#noise)"><g><g transform="translate(200,200) scale(4)"><rect x="-20" y="-20" width="40" height="40" fill="#00FF00" rx="5"/><rect x="-25" y="-25" width="50" height="10" fill="#FF0000"/></g><g transform="translate(600,200) scale(4)"><rect x="-20" y="-20" width="40" height="40" fill="#8B4513" rx="5"/><rect x="-25" y="-25" width="50" height="10" fill="#FF0000"/><rect x="-15" y="-8" width="12" height="10" fill="#000000"/><rect x="3" y="-8" width="12" height="10" fill="#000000"/><circle cx="-10" cy="0" r="2" fill="#000000"/><circle cx="10" cy="0" r="7" fill="none" stroke="#FFD700" stroke-width="1"/><path d="M10,7 L10,15" stroke="#FFD700" stroke-width="1"/></g><g transform="translate(200,600) scale(4)"><rect x="-20" y="-20" width="40" height="40" fill="#00FF00" rx="5"/><rect x="-25" y="-25" width="50" height="10" fill="#FF69B4"/><circle cx="18" cy="0" r="2" fill="#FFD700"/></g><g transform="translate(600,600) scale(4)"><rect x="-20" y="-20" width="40" height="40" fill="#FFE4B5" rx="5"/></g></g></g></svg>