<svg xmlns="http://www.w3.org/2000/svg" viewBox="0 0 800 800"><defs><filter id="noise"><feTurbulence type="fractalNoise" baseFrequency="0.015" numOctaves="4" seed="97"/><feDisplacementMap in="SourceGraphic" scale="15"/></filter></defs><rect width="800" height="800" fill="#638596"/><g filter="url(#noise)"><g><g transform="translate(100,100) scale(2)"><rect x="-20" y="-20" width="40" height="40" fill="#FF00FF" rx="5"/><rect x="-25" y="-25" width="50" height="10" fill="#4B0082"/><rect x="-15" y="-8" width="12" height="10" fill="#000000"/><rect x="3" y="-8" width="12" height="10" fill="#000000"/><circle cx="-10" cy="0" r="3" fill="#000000"/><circle cx="10" cy="0" r="3" fill="#000000"/></g><g transform="translate(300,100) scale(2)"><rect x="-20" y="-20" width="40" height="40" fill="#FFD700" rx="5"/></g><g transform="translate(500,100) scale(2)"><rect x="-20" y="-20" width="40" height="40" fill="#FFC773" rx="5"/><rect x="-25" y="-25" width="50" height="10" fill="#FFD700"/><rect x="-15" y="-8" width="12" height="10" fill="#FF0000" opacity="0.7"/><rect x="3" y="-8" width="12" height="10" fill="#00FFFF" opacity="0.7"/><path d="M-25,20 C-15,23 15,23 25,20" stroke="#C0C0C0" stroke-width="3" fill="none"/><path d="M-25,25 C-15,28 15,28 25,25" stroke="#C0C0C0" stroke-width="3" fill="none"/><path d="M-10,0 Q-5,-5 0,0" stroke="#000000" stroke-width="1" fill="none"/><circle cx="10" cy="0" r="2" fill="#000000"/><path d="M-25,-30 Q0,-40 25,-30 L20,-25 Q0,-35 -20,-25 Z" fill="#8B4513"/><rect x="-15" y="-35" width="30" height="10" fill="#8B4513"/><circle cx="18" cy="-5" r="2" fill="#FFD700"/><circle cx="18" cy="0" r="2" fill="#FFD700"/><circle cx="18" cy="5" r="2" fill="#FFD700"/></g><g transform="translate(700,100) scale(2)"><rect x="-20" y="-20" width="40" height="40" fill="#98FF98" rx="5"/><rect x="-25" y="-25" width="50" height="10" fill="#4B0082"/><rect x="-15" y="-8" width="12" height="10" fill="#000000"/><rect x="3" y="-8" width="12" height="10" fill="#000000"/><path d="M-10,0 Q-5,-5 0,0" stroke="#000000" stroke-width="1" fill="none"/><circle cx="10" cy="0" r="2" fill="#000000"/><path d="M-25,-30 Q0,-40 25,-30 L20,-25 Q0,-35 -20,-25 Z" fill="#8B4513"/><rect x="-15" y="-35" width="30" height="10" fill="#8B4513"/></g><g transform="translate(100,300) scale(2)"><rect x="-20" y="-20" width="40" height="40" fill="#A46628" rx="5"/><rect x="-25" y="-25" width="50" height="10" fill="#4B0082"/><rect x="-15" y="-8" width="12" height="10" fill="#000000"/><rect x="3" y="-8" width="12" height="10" fill="#000000"/><circle cx="-10" cy="0" r="3" fill="#000000"/><circle cx="10" cy="0" r="3" fill="#000000"/><rect x="12" y="8" width="10" height="5" fill="#4B0082"/><path d="M22,10 Q30,10 35,5" stroke="#CCCCCC" stroke-width="1" opacity="0.5"/></g><g transform="translate(300,300) scale(2)"><rect x="-20" y="-20" width="40" height="40" fill="#DEB887" rx="5"/><rect x="-25" y="-25" width="50" height="10" fill="#00FF00"/><circle cx="18" cy="0" r="2" fill="#FFD700"/></g><g transform="translate(500,300) scale(2)"><rect x="-20" y="-20" width="40" height="40" fill="#F0E68C" rx="5"/><linearGradient id="gradient0x06a55bc428d827670acab00f93f59872a9e9037e92584977db34e224acc1611a" x1="0%" y1="0%" x2="100%" y2="0%"><stop offset="0%" style="stop-color:#FFD700"/><stop offset="100%" style="stop-color:#FFD700"/></linearGradient><rect x="-25" y="-25" width="50" height="10" fill="url(#gradient0x06a55bc428d827670acab00f93f59872a9e9037e92584977db34e224acc1611a)"/><path d="M-20,-10 h40 v15 h-40 Z" fill="#FFD700"/><rect x="-15" y="-8" width="12" height="10" fill="#00FFFF" opacity="0.5"/><rect x="3" y="-8" width="12" height="10" fill="#00FFFF" opacity="0.5"/><path d="M-25,20 C-15,23 15,23 25,20" stroke="#FFD700" stroke-width="3" fill="none"/><path d="M-25,25 C-15,28 15,28 25,25" stroke="#FFD700" stroke-width="3" fill="none"/><rect x="-22" y="-40" width="44" height="5" fill="#000000"/><rect x="-15" y="-55" width="30" height="15" fill="#000000"/><rect x="-2" y="15" width="4" height="6" fill="#FFFFFF"/><circle cx="18" cy="-5" r="2" fill="#FFD700"/><circle cx="18" cy="0" r="2" fill="#FFD700"/><circle cx="18" cy="5" r="2" fill="#FFD700"/></g><g transform="translate(700,300) scale(2)"><rect x="-20" y="-20" width="40" height="40" fill="#98FF98" rx="5"/><rect x="-25" y="-25" width="50" height="10" fill="#FFD700"/><rect x="-22" y="-40" width="44" height="5" fill="#000000"/><rect x="-15" y="-55" width="30" height="15" fill="#000000"/><rect x="-2" y="15" width="4" height="6" fill="#FFFFFF"/></g><g transform="translate(100,500) scale(2)"><rect x="-20" y="-20" width="40" height="40" fill="#DDA0DD" rx="5"/><rect x="-25" y="-25" width="50" height="10" fill="#8B4513"/><rect x="-15" y="-8" width="12" height="10" fill="#000000"/><rect x="3" y="-8" width="12" height="10" fill="#000000"/><circle cx="-10" cy="0" r="3" fill="#000000"/><circle cx="10" cy="0" r="3" fill="#000000"/><rect x="12" y="8" width="10" height="5" fill="#4B0082"/><path d="M22,10 Q30,10 35,5" stroke="#CCCCCC" stroke-width="1" opacity="0.5"/></g><g transform="translate(300,500) scale(2)"><rect x="-20" y="-20" width="40" height="40" fill="#98FF98" rx="5"/><rect x="-25" y="-25" width="50" height="10" fill="#C0C0C0"/><rect x="-15" y="-8" width="12" height="10" fill="#000000"/><rect x="3" y="-8" width="12" height="10" fill="#000000"/><circle cx="-10" cy="0" r="2" fill="#000000"/><circle cx="10" cy="0" r="7" fill="none" stroke="#FFD700" stroke-width="1"/><path d="M10,7 L10,15" stroke="#FFD700" stroke-width="1"/><circle cx="18" cy="0" r="2" fill="#FFD700"/></g><g transform="translate(500,500) scale(2)"><rect x="-20" y="-20" width="40" height="40" fill="#F0E68C" rx="5"/><rect x="-25" y="-25" width="50" height="10" fill="#FFFFFF"/><rect x="-15" y="-8" width="12" height="10" fill="#000000"/><rect x="3" y="-8" width="12" height="10" fill="#000000"/></g><g transform="translate(700,500) scale(2)"><rect x="-20" y="-20" width="40" height="40" fill="#DEB887" rx="5"/><rect x="-25" y="-25" width="50" height="10" fill="#FFD700"/><rect x="-15" y="-8" width="12" height="10" fill="#000000"/><rect x="3" y="-8" width="12" height="10" fill="#000000"/><path d="M-25,20 C-15,23 15,23 25,20" stroke="#FFD700" stroke-width="3" fill="none"/></g><g transform="translate(100,700) scale(2)"><rect x="-20" y="-20" width="40" height="40" fill="#00FF00" rx="5"/><linearGradient id="gradient0x9c817c5d846363c2c4ba45818c795ca95aa5275110113429b25200ba3550e18a" x1="0%" y1="0%" x2="100%" y2="0%"><stop offset="0%" style="stop-color:#FF69B4"/><stop offset="100%" style="stop-color:#FFD700"/></linearGradient><rect x="-25" y="-25" width="50" height="10" fill="url(#gradient0x9c817c5d846363c2c4ba45818c795ca95aa5275110113429b25200ba3550e18a)"/><path d="M-20,-10 h40 v15 h-40 Z" fill="#333333"/><rect x="-15" y="-8" width="12" height="10" fill="#00FF00" opacity="0.5"/><rect x="3" y="-8" width="12" height="10" fill="#00FF00" opacity="0.5"/><path d="M-25,20 C-15,23 15,23 25,20" stroke="#FFD700" stroke-width="3" fill="none"/><path d="M-25,25 C-15,28 15,28 25,25" stroke="#FFD700" stroke-width="3" fill="none"/><path d="M-10,0 Q-5,-5 0,0" stroke="#000000" stroke-width="1" fill="none"/><circle cx="10" cy="0" r="2" fill="#000000"/><path d="M-25,-30 Q0,-40 25,-30 L20,-25 Q0,-35 -20,-25 Z" fill="#8B4513"/><rect x="-15" y="-35" width="30" height="10" fill="#8B4513"/><circle cx="18" cy="-5" r="2" fill="#FFD700"/><circle cx="18" cy="0" r="2" fill="#FFD700"/><circle cx="18" cy="5" r="2" fill="#FFD700"/></g><g transform="translate(300,700) scale(2)"><rect x="-20" y="-20" width="40" height="40" fill="#8B4513" rx="5"/></g><g transform="translate(500,700) scale(2)"><rect x="-20" y="-20" width="40" height="40" fill="#F0E68C" rx="5"/><rect x="-25" y="-25" width="50" height="10" fill="#8B4513"/></g><g transform="translate(700,700) scale(2)"><rect x="-20" y="-20" width="40" height="40" fill="#4B0082" rx="5"/><rect x="-25" y="-25" width="50" height="10" fill="#8B4513"/><rect x="-15" y="-8" width="12" height="10" fill="#000000"/><rect x="3" y="-8" width="12" height="10" fill="#000000"/><path d="M-10,0 Q-5,-5 0,0" stroke="#000000" stroke-width="1" fill="none"/><circle cx="10" cy="0" r="2" fill="#000000"/><path d="M-25,-30 Q0,-40 25,-30 L20,-25 Q0,-35 -20,-25 Z" fill="#8B4513"/><rect x="-15" y="-35" width="30" height="10" fill="#8B4513"/><path d="M-10,10 Q0,15 10,10" stroke="#000000" stroke-width="2" fill="none"/><path d="M-25,20 C-15,23 15,23 25,20" stroke="#FFD700" stroke-width="3" fill="none"/></g></g></g></svg>