<svg xmlns="http://www.w3.org/2000/svg" viewBox="0 0 800 800"><defs><filter id="noise"><feTurbulence type="fractalNoise" baseFrequency="0.015" numOctaves="4" seed="4"/><feDisplacementMap in="SourceGraphic" scale="15"/></filter></defs><rect width="800" height="800" fill="#800080"/><g filter="url(#noise)"><g><g transform="translate(100,100) scale(2)"><rect x="-20" y="-20" width="40" height="40" fill="#DEB887" rx="5"/><linearGradient id="gradient0x3df1ea02fb4a9ec5d4c3d7b22ed57e2d2383a429110015f8f77ac1537c98f6fe" x1="0%" y1="0%" x2="100%" y2="0%"><stop offset="0%" style="stop-color:#FF69B4"/><stop offset="100%" style="stop-color:#FFD700"/></linearGradient><rect x="-25" y="-25" width="50" height="10" fill="url(#gradient0x3df1ea02fb4a9ec5d4c3d7b22ed57e2d2383a429110015f8f77ac1537c98f6fe)"/><rect x="-15" y="-8" width="12" height="10" fill="#000000"/><rect x="3" y="-8" width="12" height="10" fill="#000000"/><path d="M-25,20 C-15,23 15,23 25,20" stroke="#FFD700" stroke-width="3" fill="none"/><path d="M-25,25 C-15,28 15,28 25,25" stroke="#FFD700" stroke-width="3" fill="none"/><circle cx="-10" cy="0" r="2" fill="#000000"/><circle cx="10" cy="0" r="7" fill="none" stroke="#FFD700" stroke-width="1"/><path d="M10,7 L10,15" stroke="#FFD700" stroke-width="1"/><path d="M-25,-30 Q0,-40 25,-30 L20,-25 Q0,-35 -20,-25 Z" fill="#8B4513"/><rect x="-15" y="-35" width="30" height="10" fill="#8B4513"/><circle cx="18" cy="-5" r="2" fill="#FFD700"/><circle cx="18" cy="0" r="2" fill="#FFD700"/><circle cx="18" cy="5" r="2" fill="#FFD700"/></g><g transform="translate(300,100) scale(2)"><rect x="-20" y="-20" width="40" height="40" fill="#FFD700" rx="5"/><rect x="-15" y="-8" width="12" height="10" fill="#000000"/><rect x="3" y="-8" width="12" height="10" fill="#000000"/></g><g transform="translate(500,100) scale(2)"><rect x="-20" y="-20" width="40" height="40" fill="#8B4513" rx="5"/><rect x="-25" y="-25" width="50" height="10" fill="#FFD700"/><rect x="-15" y="-8" width="12" height="10" fill="#000000"/><rect x="3" y="-8" width="12" height="10" fill="#000000"/><path d="M-25,20 C-15,23 15,23 25,20" stroke="#C0C0C0" stroke-width="3" fill="none"/></g><g transform="translate(700,100) scale(2)"><rect x="-20" y="-20" width="40" height="40" fill="#FF00FF" rx="5"/></g><g transform="translate(100,300) scale(2)"><rect x="-20" y="-20" width="40" height="40" fill="#00FF00" rx="5"/><rect x="-25" y="-25" width="50" height="10" fill="#C0C0C0"/><rect x="-15" y="-8" width="12" height="10" fill="#000000"/><rect x="3" y="-8" width="12" height="10" fill="#000000"/><path d="M-10,0 Q-5,-5 0,0" stroke="#000000" stroke-width="1" fill="none"/><circle cx="10" cy="0" r="2" fill="#000000"/><circle cx="18" cy="0" r="2" fill="#FFD700"/></g><g transform="translate(300,300) scale(2)"><rect x="-20" y="-20" width="40" height="40" fill="#E6E6FA" rx="5"/></g><g transform="translate(500,300) scale(2)"><rect x="-20" y="-20" width="40" height="40" fill="#F0E68C" rx="5"/><rect x="-25" y="-25" width="50" height="10" fill="#4B0082"/><rect x="-15" y="-8" width="12" height="10" fill="#000000"/><rect x="3" y="-8" width="12" height="10" fill="#000000"/><path d="M-10,10 Q0,15 10,10" stroke="#000000" stroke-width="2" fill="none"/><path d="M-25,20 C-15,23 15,23 25,20" stroke="#FFD700" stroke-width="3" fill="none"/></g><g transform="translate(700,300) scale(2)"><rect x="-20" y="-20" width="40" height="40" fill="#98FF98" rx="5"/><rect x="-25" y="-25" width="50" height="10" fill="#4B0082"/><rect x="-15" y="-8" width="12" height="10" fill="#000000"/><rect x="3" y="-8" width="12" height="10" fill="#000000"/><path d="M-10,0 Q-5,-5 0,0" stroke="#000000" stroke-width="1" fill="none"/><circle cx="10" cy="0" r="2" fill="#000000"/><circle cx="18" cy="0" r="2" fill="#FFD700"/></g><g transform="translate(100,500) scale(2)"><rect x="-20" y="-20" width="40" height="40" fill="#FFD700" rx="5"/><circle cx="-10" cy="0" r="2" fill="#000000"/><circle cx="10" cy="0" r="7" fill="none" stroke="#FFD700" stroke-width="1"/><path d="M10,7 L10,15" stroke="#FFD700" stroke-width="1"/><rect x="-22" y="-40" width="44" height="5" fill="#000000"/><rect x="-15" y="-55" width="30" height="15" fill="#000000"/><rect x="-2" y="15" width="4" height="6" fill="#FFFFFF"/></g><g transform="translate(300,500) scale(2)"><rect x="-20" y="-20" width="40" height="40" fill="#FFC773" rx="5"/><rect x="-25" y="-25" width="50" height="10" fill="#FFD700"/><rect x="-15" y="-8" width="12" height="10" fill="#000000"/><rect x="3" y="-8" width="12" height="10" fill="#000000"/><path d="M-10,0 Q-5,-5 0,0" stroke="#000000" stroke-width="1" fill="none"/><circle cx="10" cy="0" r="2" fill="#000000"/><circle cx="18" cy="0" r="2" fill="#FFD700"/></g><g transform="translate(500,500) scale(2)"><rect x="-20" y="-20" width="40" height="40" fill="#E6E6FA" rx="5"/><rect x="-25" y="-25" width="50" height="10" fill="#FF0000"/><rect x="-15" y="-8" width="12" height="10" fill="#000000"/><rect x="3" y="-8" width="12" height="10" fill="#000000"/><path d="M-25,20 C-15,23 15,23 25,20" stroke="#C0C0C0" stroke-width="3" fill="none"/><path d="M-25,25 C-15,28 15,28 25,25" stroke="#C0C0C0" stroke-width="3" fill="none"/><circle cx="18" cy="-5" r="2" fill="#FFD700"/><circle cx="18" cy="0" r="2" fill="#FFD700"/><circle cx="18" cy="5" r="2" fill="#FFD700"/><path d="M-10,0 Q-5,-5 0,0" stroke="#000000" stroke-width="1" fill="none"/><circle cx="10" cy="0" r="2" fill="#000000"/><path d="M-25,-30 Q0,-40 25,-30 L20,-25 Q0,-35 -20,-25 Z" fill="#8B4513"/><rect x="-15" y="-35" width="30" height="10" fill="#8B4513"/><circle cx="0" cy="0" r="30" fill="none" stroke="#FFD700" stroke-width="1" opacity="0.5"/><circle cx="0" cy="0" r="35" fill="none" stroke="#FFD700" stroke-width="1" opacity="0.3"/></g><g transform="translate(700,500) scale(2)"><rect x="-20" y="-20" width="40" height="40" fill="#FFC773" rx="5"/><rect x="-25" y="-25" width="50" height="10" fill="#00FF00"/><rect x="-15" y="-8" width="12" height="10" fill="#000000"/><rect x="3" y="-8" width="12" height="10" fill="#000000"/><path d="M-25,20 C-15,23 15,23 25,20" stroke="#C0C0C0" stroke-width="3" fill="none"/><path d="M-25,25 C-15,28 15,28 25,25" stroke="#C0C0C0" stroke-width="3" fill="none"/><path d="M-10,0 Q-5,-5 0,0" stroke="#000000" stroke-width="1" fill="none"/><circle cx="10" cy="0" r="2" fill="#000000"/><circle cx="18" cy="-5" r="2" fill="#FFD700"/><circle cx="18" cy="0" r="2" fill="#FFD700"/><circle cx="18" cy="5" r="2" fill="#FFD700"/></g><g transform="translate(100,700) scale(2)"><rect x="-20" y="-20" width="40" height="40" fill="#8B4513" rx="5"/></g><g transform="translate(300,700) scale(2)"><rect x="-20" y="-20" width="40" height="40" fill="#DEB887" rx="5"/><rect x="-25" y="-25" width="50" height="10" fill="#00FF00"/><rect x="-15" y="-8" width="12" height="10" fill="#000000"/><rect x="3" y="-8" width="12" height="10" fill="#000000"/></g><g transform="translate(500,700) scale(2)"><rect x="-20" y="-20" width="40" height="40" fill="#8B4513" rx="5"/></g><g transform="translate(700,700) scale(2)"><rect x="-20" y="-20" width="40" height="40" fill="#E6E6FA" rx="5"/><rect x="-15" y="-8" width="12" height="10" fill="#000000"/><rect x="3" y="-8" width="12" height="10" fill="#000000"/></g></g></g></svg>