<svg xmlns="http://www.w3.org/2000/svg" viewBox="0 0 800 800"><defs><filter id="noise"><feTurbulence type="fractalNoise" baseFrequency="0.015" numOctaves="4" seed="15"/><feDisplacementMap in="SourceGraphic" scale="15"/></filter></defs><rect width="800" height="800" fill="#FF69B4"/><g filter="url(#noise)"><g><g transform="translate(100,100) scale(2)"><rect x="-20" y="-20" width="40" height="40" fill="#8B4513" rx="5"/></g><g transform="translate(300,100) scale(2)"><rect x="-20" y="-20" width="40" height="40" fill="#DDA0DD" rx="5"/><rect x="-25" y="-25" width="50" height="10" fill="#FF0000"/><rect x="-15" y="-8" width="12" height="10" fill="#000000"/><rect x="3" y="-8" width="12" height="10" fill="#000000"/><rect x="-22" y="-40" width="44" height="5" fill="#000000"/><rect x="-15" y="-55" width="30" height="15" fill="#000000"/><rect x="-2" y="15" width="4" height="6" fill="#FFFFFF"/></g><g transform="translate(500,100) scale(2)"><rect x="-20" y="-20" width="40" height="40" fill="#50C878" rx="5"/><rect x="-25" y="-25" width="50" height="10" fill="#000000"/><rect x="-15" y="-8" width="12" height="10" fill="#000000"/><rect x="3" y="-8" width="12" height="10" fill="#000000"/></g><g transform="translate(700,100) scale(2)"><rect x="-20" y="-20" width="40" height="40" fill="#98FB98" rx="5"/><rect x="-25" y="-25" width="50" height="10" fill="#FF69B4"/><rect x="-15" y="-8" width="12" height="10" fill="#000000"/><rect x="3" y="-8" width="12" height="10" fill="#000000"/><path d="M-25,20 C-15,23 15,23 25,20" stroke="#FFD700" stroke-width="3" fill="none"/><rect x="-22" y="-40" width="44" height="5" fill="#000000"/><rect x="-15" y="-55" width="30" height="15" fill="#000000"/><rect x="-2" y="15" width="4" height="6" fill="#FFFFFF"/><path d="M-10,10 Q0,15 10,10" stroke="#000000" stroke-width="2" fill="none"/></g><g transform="translate(100,300) scale(2)"><rect x="-20" y="-20" width="40" height="40" fill="#98FF98" rx="5"/><rect x="-25" y="-25" width="50" height="10" fill="#FF69B4"/><rect x="-15" y="-8" width="12" height="10" fill="#000000"/><rect x="3" y="-8" width="12" height="10" fill="#000000"/><rect x="-22" y="-40" width="44" height="5" fill="#000000"/><rect x="-15" y="-55" width="30" height="15" fill="#000000"/><rect x="-2" y="15" width="4" height="6" fill="#FFFFFF"/><path d="M-10,10 Q0,15 10,10" stroke="#000000" stroke-width="2" fill="none"/></g><g transform="translate(300,300) scale(2)"><rect x="-20" y="-20" width="40" height="40" fill="#E6E6FA" rx="5"/><rect x="-25" y="-25" width="50" height="10" fill="#FFD700"/><rect x="-15" y="-8" width="12" height="10" fill="#000000"/><rect x="3" y="-8" width="12" height="10" fill="#000000"/><circle cx="-10" cy="0" r="2" fill="#000000"/><circle cx="10" cy="0" r="7" fill="none" stroke="#FFD700" stroke-width="1"/><path d="M10,7 L10,15" stroke="#FFD700" stroke-width="1"/><circle cx="18" cy="0" r="2" fill="#FFD700"/></g><g transform="translate(500,300) scale(2)"><rect x="-20" y="-20" width="40" height="40" fill="#A0522D" rx="5"/><rect x="-25" y="-25" width="50" height="10" fill="#C0C0C0"/></g><g transform="translate(700,300) scale(2)"><rect x="-20" y="-20" width="40" height="40" fill="#50C878" rx="5"/><rect x="-25" y="-25" width="50" height="10" fill="#FFFFFF"/><rect x="-22" y="-40" width="44" height="5" fill="#000000"/><rect x="-15" y="-55" width="30" height="15" fill="#000000"/><rect x="-2" y="15" width="4" height="6" fill="#FFFFFF"/></g><g transform="translate(100,500) scale(2)"><rect x="-20" y="-20" width="40" height="40" fill="#8B4513" rx="5"/><rect x="-15" y="-8" width="12" height="10" fill="#000000"/><rect x="3" y="-8" width="12" height="10" fill="#000000"/></g><g transform="translate(300,500) scale(2)"><rect x="-20" y="-20" width="40" height="40" fill="#98FF98" rx="5"/><rect x="-25" y="-25" width="50" height="10" fill="#8B4513"/><rect x="-15" y="-8" width="12" height="10" fill="#000000"/><rect x="3" y="-8" width="12" height="10" fill="#000000"/></g><g transform="translate(500,500) scale(2)"><rect x="-20" y="-20" width="40" height="40" fill="#98FF98" rx="5"/><rect x="-25" y="-25" width="50" height="10" fill="#FFA500"/><rect x="-15" y="-8" width="12" height="10" fill="#000000"/><rect x="3" y="-8" width="12" height="10" fill="#000000"/></g><g transform="translate(700,500) scale(2)"><rect x="-20" y="-20" width="40" height="40" fill="#8B4513" rx="5"/><rect x="-22" y="-40" width="44" height="5" fill="#000000"/><rect x="-15" y="-55" width="30" height="15" fill="#000000"/><rect x="-2" y="15" width="4" height="6" fill="#FFFFFF"/></g><g transform="translate(100,700) scale(2)"><rect x="-20" y="-20" width="40" height="40" fill="#FFC773" rx="5"/><rect x="-25" y="-25" width="50" height="10" fill="#FFD700"/><rect x="-15" y="-8" width="12" height="10" fill="#000000"/><rect x="3" y="-8" width="12" height="10" fill="#000000"/><circle cx="-10" cy="0" r="3" fill="#000000"/><circle cx="10" cy="0" r="3" fill="#000000"/><circle cx="18" cy="0" r="2" fill="#FFD700"/></g><g transform="translate(300,700) scale(2)"><rect x="-20" y="-20" width="40" height="40" fill="#FFE4B5" rx="5"/></g><g transform="translate(500,700) scale(2)"><rect x="-20" y="-20" width="40" height="40" fill="#98FB98" rx="5"/><rect x="-25" y="-25" width="50" height="10" fill="#FFA500"/></g><g transform="translate(700,700) scale(2)"><rect x="-20" y="-20" width="40" height="40" fill="#F0E68C" rx="5"/><rect x="-25" y="-25" width="50" height="10" fill="#FF69B4"/><rect x="-15" y="-8" width="12" height="10" fill="#000000"/><rect x="3" y="-8" width="12" height="10" fill="#000000"/><path d="M-25,20 C-15,23 15,23 25,20" stroke="#FFD700" stroke-width="3" fill="none"/></g></g></g></svg>